# WaveFront *.obj file (generated by Cinema 4D)

mtllib ./Shake:slate_starter.mtl

v 6.583198 1.161788 0.178991
v 6.559271 1.162967 0.121225
v 6.559271 1.117812 0.121225
v 6.583198 1.117812 0.178991
v 6.519483 1.117812 -0.141327
v 6.519483 1.117812 -0.078801
v 6.583198 1.117812 -0.399119
v 6.559271 1.117812 -0.341353
v 6.559271 1.172415 -0.341353
v -7.743628 1.167691 -0.110064
v 6.583198 1.173595 -0.399119
v -7.542680 1.157783 0.375068
v -7.320100 1.154745 0.523791
v -7.057548 1.153679 0.576016
v -7.320100 1.180637 -0.743919
v -7.542680 1.177600 -0.595196
v -7.691404 1.173054 -0.372616
v -6.371468 1.117812 -0.110064
v -6.423693 1.117812 -0.372616
v -6.572416 1.117812 -0.595196
v -6.794997 1.117812 -0.743919
v -7.057548 1.117812 -0.796144
v -7.320100 1.117812 -0.743919
v -7.542680 1.117812 -0.595196
v -7.691404 1.117812 -0.372616
v -7.743628 1.117812 -0.110064
v -7.697622 1.117812 0.121225
v -7.542680 1.117812 0.375068
v -7.320100 1.117812 0.523791
v -6.794997 1.154745 0.523791
v -6.572416 1.157783 0.375068
v -6.423693 1.162329 0.152488
v -6.371468 1.167691 -0.110064
v -6.423693 1.173054 -0.372616
v -6.572416 1.177600 -0.595196
v -6.794997 1.180637 -0.743919
v -7.057548 1.181704 -0.796144
v -7.057548 1.117812 0.576016
v -6.794997 1.117812 0.523791
v -6.572416 1.117812 0.375068
v -7.673695 1.117812 0.178991
v 7.885425 1.117812 -0.110064
v 7.833200 1.117812 -0.372616
v 7.684477 1.117812 -0.595196
v 7.461896 1.117812 -0.743919
v 7.199345 1.117812 -0.796144
v 6.936793 1.117812 -0.743919
v 6.714213 1.117812 -0.595196
v -7.673695 1.161788 0.178991
v -7.697622 1.162967 0.121225
v 6.519483 1.167053 -0.078801
v 6.714213 1.117812 0.375068
v 6.936793 1.117812 0.523791
v 7.199345 1.117812 0.576016
v 7.461896 1.117812 0.523791
v 7.684477 1.117812 0.375068
v 7.833200 1.117812 0.152488
v -6.423693 1.117812 0.152488
v 6.519483 1.168330 -0.141327
v 6.714213 1.157783 0.375068
v 6.936793 1.154745 0.523791
v 7.199345 1.153679 0.576016
v 7.461896 1.154745 0.523791
v 7.684477 1.157783 0.375068
v 7.833200 1.162329 0.152488
v 7.885425 1.167691 -0.110064
v 7.833200 1.173054 -0.372616
v 7.684477 1.177600 -0.595196
v 7.461896 1.180637 -0.743919
v 7.199345 1.181704 -0.796144
v 6.936793 1.180637 -0.743919
v 6.714213 1.177600 -0.595196
v -15.843125 0.000573 15.479075
v -15.843125 0.032448 15.510950
v -15.875000 0.032448 15.479075
v -15.843125 0.816769 15.510950
v -15.843125 0.849295 15.479082
v -15.875000 0.817413 15.479075
v 15.875000 0.032448 15.479075
v 15.843125 0.032448 15.510950
v 15.843125 0.000573 15.479075
v 15.875000 0.817413 15.479075
v 15.843125 0.849295 15.479082
v 15.843125 0.816769 15.510950
v 15.843125 0.032448 -15.510950
v 15.875000 0.032448 -15.479075
v 15.843125 0.000573 -15.479075
v 15.843125 1.450368 -15.510950
v 15.843125 1.481592 -15.479082
v 15.875000 1.449710 -15.479075
v -15.875000 0.032448 -15.479075
v -15.843125 0.032448 -15.510950
v -15.843125 0.000573 -15.479075
v -15.875000 1.449710 -15.479075
v -15.843125 1.481592 -15.479082
v -15.843125 1.450368 -15.510950
# 96 vertices

vn -0.000000 0.999792 0.020420
vn 0.000000 0.999792 0.020420
vn 0.000000 0.999792 0.020420
vn -0.000000 0.999792 0.020420
vn -0.000000 0.999792 0.020420
vn 0.000000 0.999792 0.020420
vn -0.000000 0.999792 0.020420
vn -0.000000 0.999792 0.020420
vn -0.000000 0.999792 0.020420
vn -0.000000 0.999792 0.020420
vn -0.000000 0.999792 0.020420
vn -0.000000 0.999792 0.020420
vn -0.000000 0.999792 0.020420
vn 0.000000 0.999792 0.020420
vn -0.000000 0.999792 0.020420
vn -0.000000 0.999792 0.020420
vn 0.000000 0.999792 0.020420
vn -0.000000 0.999792 0.020420
vn 0.000000 0.999792 0.020420
vn -0.000000 0.999792 0.020420
vn -0.000000 0.999792 0.020420
vn 0.000000 0.999791 0.020420
vn 0.000000 0.999792 0.020420
vn 0.000000 0.999792 0.020420
vn -0.000000 0.999792 0.020420
vn 0.000000 0.999792 0.020420
vn 0.000000 0.999792 0.020420
vn 0.000000 0.999792 0.020420
vn -0.000000 0.999792 0.020420
vn 0.000000 0.999792 0.020420
vn 0.000000 0.999792 0.020420
vn -0.000000 0.999792 0.020420
vn -0.000000 0.999792 0.020420
vn 0.000000 0.999792 0.020420
vn 0.000000 0.999792 0.020420
vn 0.000000 0.999792 0.020420
vn 0.000000 0.999792 0.020420
vn 0.000000 0.999792 0.020420
vn -0.000000 0.999792 0.020420
vn 0.000000 1.000000 0.000000
vn 0.000000 0.000000 1.000000
vn 1.000000 0.000000 0.000000
vn 0.000000 0.000000 -1.000000
vn -1.000000 0.000000 0.000000
vn -0.923880 0.000000 -0.382683
vn -0.707107 0.000000 -0.707107
vn -1.000000 -0.000000 0.000000
vn -0.382683 0.000000 -0.923880
vn 0.000000 -1.000000 0.000000
vn 0.923880 0.000000 0.382683
vn 0.707107 0.000000 0.707107
vn -0.923880 0.000000 0.382683
vn 0.382683 0.000000 0.923880
vn -0.707107 0.000000 0.707107
vn 1.000000 -0.000000 0.000000
vn -0.382683 -0.000000 0.923880
vn 0.000000 0.000000 1.000000
vn 0.956940 -0.000000 -0.290285
vn 0.707107 0.000000 0.707107
vn 0.707107 -0.000000 -0.707107
vn 0.881921 -0.000000 -0.471397
vn 0.881921 0.000000 0.471397
vn 0.995185 0.000000 0.098017
vn 0.956940 0.000000 0.290285
vn 0.382683 -0.000000 -0.923880
vn 0.956940 0.000000 -0.290285
vn 0.995185 0.000000 -0.098017
vn 0.000000 0.000000 -1.000000
vn -0.738834 -0.476510 0.476510
vn -0.476510 -0.476510 0.738834
vn -0.476510 -0.738834 0.476510
vn -0.735820 0.473922 0.483701
vn -0.474407 0.733519 0.486711
vn -0.474407 0.471631 0.743305
vn 0.476510 -0.738834 0.476510
vn 0.476510 -0.476510 0.738834
vn 0.738834 -0.476510 0.476510
vn 0.474407 0.471631 0.743305
vn 0.474407 0.733519 0.486711
vn 0.735820 0.473922 0.483701
vn 0.476510 -0.738834 -0.476510
vn 0.738834 -0.476510 -0.476510
vn 0.476510 -0.476510 -0.738834
vn 0.741943 0.478905 -0.469224
vn 0.478723 0.743960 -0.466207
vn 0.478723 0.481301 -0.734285
vn -0.476510 -0.738834 -0.476510
vn -0.476510 -0.476510 -0.738834
vn -0.738834 -0.476510 -0.476510
vn -0.478723 0.481301 -0.734285
vn -0.478723 0.743960 -0.466207
vn -0.741943 0.478905 -0.469224
# 92 normals

vt 0.832041 0.722892 0.000000
vt 0.624894 0.722892 0.000000
vt 0.628252 0.725136 0.000000
vt 0.828683 0.725136 0.000000
vt 0.825746 0.731982 0.000000
vt 0.826346 0.728965 0.000000
vt 0.630495 0.728493 0.000000
vt 0.631283 0.732454 0.000000
vt 0.630495 0.736415 0.000000
vt 0.826346 0.735943 0.000000
vt 0.825746 0.732925 0.000000
vt 0.628252 0.739772 0.000000
vt 0.828683 0.739772 0.000000
vt 0.826707 0.736814 0.000000
vt 0.826707 0.728093 0.000000
vt 0.322383 0.628234 0.000000
vt 0.966394 0.964298 0.000000
vt 0.846351 0.732454 0.000000
vt 0.845563 0.736415 0.000000
vt 0.843320 0.739772 0.000000
vt 0.839962 0.742016 0.000000
vt 0.836001 0.742804 0.000000
vt 0.832041 0.742016 0.000000
vt 0.488402 0.964298 0.000000
vt 0.624894 0.742016 0.000000
vt 0.620934 0.742804 0.000000
vt 0.616973 0.742016 0.000000
vt 0.613615 0.739772 0.000000
vt 0.611372 0.736415 0.000000
vt 0.610584 0.732454 0.000000
vt 0.488402 0.497289 0.000000
vt 0.611278 0.728965 0.000000
vt 0.611639 0.728093 0.000000
vt 0.613615 0.725136 0.000000
vt 0.616973 0.722892 0.000000
vt 0.620934 0.722104 0.000000
vt 0.966394 0.497289 0.000000
vt 0.836001 0.722104 0.000000
vt 0.839962 0.722892 0.000000
vt 0.843320 0.725136 0.000000
vt 0.845563 0.728493 0.000000
vt 0.430895 0.635790 0.000000
vt 0.321199 0.634189 0.000000
vt 0.046822 0.466531 0.000000
vt 0.046822 0.477241 0.000000
vt 0.479511 0.477241 0.000000
vt 0.479511 0.466531 0.000000
vt 0.484544 0.465730 0.000000
vt 0.495263 0.465730 0.000000
vt 0.503898 0.042983 0.000000
vt 0.484544 0.042983 0.000000
vt 0.046893 0.015761 0.000000
vt 0.046893 0.035123 0.000000
vt 0.479583 0.035123 0.000000
vt 0.479583 0.015761 0.000000
vt 0.036897 0.043655 0.000000
vt 0.017544 0.043655 0.000000
vt 0.026178 0.466402 0.000000
vt 0.036897 0.466402 0.000000
vt 0.022076 0.257111 0.000000
vt 0.021468 0.257111 0.000000
vt 0.021530 0.260150 0.000000
vt 0.022076 0.260150 0.000000
vt 0.022076 0.253525 0.000000
vt 0.021395 0.253525 0.000000
vt 0.352987 0.030582 0.000000
vt 0.352987 0.031128 0.000000
vt 0.356027 0.031086 0.000000
vt 0.356027 0.030582 0.000000
vt 0.046822 0.042913 0.000000
vt 0.046822 0.465660 0.000000
vt 0.479511 0.465660 0.000000
vt 0.479511 0.042913 0.000000
vt 0.499365 0.249268 0.000000
vt 0.500120 0.249268 0.000000
vt 0.500182 0.246229 0.000000
vt 0.499365 0.246229 0.000000
vt 0.022076 0.249940 0.000000
vt 0.021322 0.249940 0.000000
vt 0.160168 0.481352 0.000000
vt 0.160168 0.482168 0.000000
vt 0.163208 0.482209 0.000000
vt 0.163208 0.481352 0.000000
vt 0.022076 0.246901 0.000000
vt 0.021260 0.246901 0.000000
vt 0.499365 0.252853 0.000000
vt 0.500046 0.252853 0.000000
vt 0.365062 0.481352 0.000000
vt 0.365062 0.482209 0.000000
vt 0.368102 0.482168 0.000000
vt 0.368102 0.481352 0.000000
vt 0.166793 0.482224 0.000000
vt 0.166793 0.481352 0.000000
vt 0.361477 0.481352 0.000000
vt 0.361477 0.482224 0.000000
vt 0.499982 0.256012 0.000000
vt 0.499365 0.256012 0.000000
vt 0.357892 0.481352 0.000000
vt 0.357892 0.482209 0.000000
vt 0.170378 0.482209 0.000000
vt 0.170378 0.481352 0.000000
vt 0.354852 0.481352 0.000000
vt 0.354852 0.482168 0.000000
vt 0.499365 0.259478 0.000000
vt 0.499911 0.259478 0.000000
vt 0.499966 0.256801 0.000000
vt 0.499365 0.256801 0.000000
vt 0.500127 0.248906 0.000000
vt 0.499365 0.248906 0.000000
vt 0.173418 0.482168 0.000000
vt 0.173418 0.481352 0.000000
vt 0.500055 0.252426 0.000000
vt 0.500111 0.249695 0.000000
vt 0.499365 0.249695 0.000000
vt 0.499365 0.252426 0.000000
vt 0.363197 0.030582 0.000000
vt 0.363197 0.031086 0.000000
vt 0.366237 0.031128 0.000000
vt 0.366237 0.030582 0.000000
vt 0.500038 0.253280 0.000000
vt 0.499365 0.253280 0.000000
vt 0.359612 0.030582 0.000000
vt 0.359612 0.031072 0.000000
vt 0.168513 0.030582 0.000000
vt 0.168513 0.031086 0.000000
vt 0.171553 0.031128 0.000000
vt 0.171553 0.030582 0.000000
vt 0.164928 0.030582 0.000000
vt 0.164928 0.031072 0.000000
vt 0.161343 0.030582 0.000000
vt 0.161343 0.031086 0.000000
vt 0.158303 0.030582 0.000000
vt 0.158303 0.031128 0.000000
vt 0.046387 0.465660 0.000000
vt 0.046822 0.466095 0.000000
vt 0.126538 0.503001 0.000000
vt 0.487921 0.497289 0.000000
vt 0.488402 0.496808 0.000000
vt 0.479511 0.466095 0.000000
vt 0.479947 0.465660 0.000000
vt 0.966394 0.496808 0.000000
vt 0.966875 0.497289 0.000000
vt 0.479947 0.042913 0.000000
vt 0.479511 0.042478 0.000000
vt 0.966875 0.964298 0.000000
vt 0.966394 0.964779 0.000000
vt 0.046822 0.042478 0.000000
vt 0.046387 0.042913 0.000000
vt 0.488402 0.964779 0.000000
vt 0.487921 0.964298 0.000000
vt 0.046387 0.466531 0.000000
vt 0.046387 0.477250 0.000000
vt 0.479947 0.477250 0.000000
vt 0.479947 0.466531 0.000000
vt 0.046458 0.015761 0.000000
vt 0.046458 0.035114 0.000000
vt 0.480018 0.035114 0.000000
vt 0.480018 0.015761 0.000000
# 158 texture coordinates

o STARTER_shake-slate_low_poly
usemtl starter slate shake UV
f 60/4/3 31/3/3 30/2/2 61/1/1
f 33/8/7 32/7/6 2/6/5 51/5/4
f 33/8/7 59/11/10 9/10/9 34/9/8
f 34/9/8 11/14/13 72/13/12 35/12/11
f 32/7/6 31/3/3 60/4/3 1/15/14
f 33/8/7 51/5/4 59/11/10
f 1/15/14 2/6/5 32/7/6
f 34/9/8 9/10/9 11/14/13
f 67/19/17 66/18/16 89/17/15
f 68/20/18 67/19/17 89/17/15
f 69/21/19 68/20/18 89/17/15
f 70/22/20 69/21/19 89/17/15
f 71/23/21 70/22/20 89/17/15
f 71/23/21 89/17/15 95/24/22
f 72/13/12 71/23/21 95/24/22
f 36/25/23 35/12/11 72/13/12
f 36/25/23 72/13/12 95/24/22
f 37/26/24 36/25/23 95/24/22
f 15/27/25 37/26/24 95/24/22
f 16/28/26 15/27/25 95/24/22
f 17/29/27 16/28/26 95/24/22
f 10/30/28 17/29/27 95/24/22
f 10/30/28 95/24/22 77/31/29
f 50/32/30 10/30/28 77/31/29
f 49/33/31 50/32/30 77/31/29
f 12/34/32 49/33/31 77/31/29
f 13/35/33 12/34/32 77/31/29
f 14/36/34 13/35/33 77/31/29
f 14/36/34 77/31/29 83/37/35
f 30/2/2 14/36/34 83/37/35
f 61/1/1 30/2/2 83/37/35
f 62/38/36 61/1/1 83/37/35
f 63/39/37 62/38/36 83/37/35
f 64/40/38 63/39/37 83/37/35
f 65/41/39 64/40/38 83/37/35
f 65/41/39 83/37/35 89/17/15
f 66/18/16 65/41/39 89/17/15
f 45/21/40 46/22/40 47/23/40 48/13/40 7/14/40 8/10/40 5/11/40 6/5/40 3/6/40 4/15/40 52/4/40 53/1/40 54/38/40 55/39/40 56/40/40 57/41/40 42/18/40 43/19/40 44/20/40
f 22/26/40 23/27/40 24/28/40 25/29/40 26/30/40 27/32/40 41/33/40 28/34/40 29/35/40 38/36/40 39/2/40 40/3/40 58/7/40 18/8/40 19/9/40 20/12/40 21/25/40
f 80/47/41 84/46/41 76/45/41 74/44/41
f 86/51/42 90/50/42 82/49/42 79/48/42
f 92/55/43 96/54/43 88/53/43 85/52/43
f 75/59/44 78/58/44 94/57/44 91/56/44
f 40/63/46 31/62/46 32/61/45 58/60/45
f 58/60/45 32/61/45 33/65/47 18/64/47
f 39/69/48 30/68/48 31/67/46 40/66/46
f 87/73/49 81/72/49 73/71/49 93/70/49
f 24/77/51 16/76/51 17/75/50 25/74/50
f 42/64/47 66/65/47 67/79/52 43/78/52
f 23/83/53 15/82/53 16/81/51 24/80/51
f 43/78/52 67/79/52 68/85/54 44/84/54
f 25/74/50 17/75/50 10/87/55 26/86/55
f 44/91/54 68/90/54 69/89/56 45/88/56
f 22/93/57 37/92/57 15/82/53 23/83/53
f 45/88/56 69/89/56 70/95/57 46/94/57
f 27/97/58 26/86/55 10/87/55 50/96/58
f 46/94/57 70/95/57 71/99/53 47/98/53
f 21/101/56 36/100/56 37/92/57 22/93/57
f 47/98/53 71/99/53 72/103/59 48/102/59
f 41/107/61 49/106/61 12/105/60 28/104/60
f 7/109/62 48/77/59 72/76/59 11/108/62
f 20/111/54 35/110/54 36/100/56 21/101/56
f 5/115/63 8/114/64 9/113/64 59/112/63
f 28/119/60 12/118/60 13/117/65 29/116/65
f 3/97/66 6/121/67 51/120/67 2/96/66
f 19/78/52 34/79/52 35/85/54 20/84/54
f 4/107/61 1/106/61 60/105/60 52/104/60
f 29/116/65 13/117/65 14/123/68 38/122/68
f 52/127/60 60/126/60 61/125/65 53/124/65
f 18/64/47 33/65/47 34/79/52 19/78/52
f 53/124/65 61/125/65 62/129/68 54/128/68
f 38/122/68 14/123/68 30/68/48 39/69/48
f 54/128/68 62/129/68 63/131/48 55/130/48
f 57/60/45 65/61/45 66/65/47 42/64/47
f 55/130/48 63/131/48 64/133/46 56/132/46
f 56/63/46 64/62/46 65/61/45 57/60/45
f 73/71/71 74/135/70 75/134/69
f 76/138/74 77/31/73 78/137/72
f 79/140/77 80/139/76 81/72/75
f 82/142/80 83/37/79 84/141/78
f 85/144/83 86/143/82 87/73/81
f 88/146/86 89/17/85 90/145/84
f 91/148/89 92/147/88 93/70/87
f 94/150/92 95/24/91 96/149/90
f 95/24/91 89/17/85 88/146/86 96/149/90
f 89/17/85 83/37/79 82/142/80 90/145/84
f 83/37/79 77/31/73 76/138/74 84/141/78
f 77/31/73 95/24/91 94/150/92 78/137/72
f 74/44/70 76/45/74 78/152/72 75/151/69
f 84/46/78 80/47/76 79/154/77 82/153/80
f 80/139/76 74/135/70 73/71/71 81/72/75
f 90/156/84 86/155/82 85/52/83 88/53/86
f 86/143/82 79/140/77 81/72/75 87/73/81
f 96/54/90 92/55/88 91/158/89 94/157/92
f 92/147/88 85/144/83 87/73/81 93/70/87
f 75/134/69 91/148/89 93/70/87 73/71/71
f 27/97/58 50/96/58 49/106/61 41/107/61
f 7/109/62 11/108/62 9/113/64 8/114/64
f 5/115/63 59/112/63 51/120/67 6/121/67
f 3/97/66 2/96/66 1/106/61 4/107/61

